
<svg xmlns="http://www.w3.org/2000/svg" xmlns:xlink="http://www.w3.org/1999/xlink" x="0px" y="0px"
	 viewBox="0 0 193.2 135" enable-background="new 0 0 193.2 135" xml:space="preserve">
	<g>
		<g>
			<rect x="1.2" y="106.4" fill="#FFFFFF" width="190.9" height="0.7"/>
			<g>
				<path fill="#FFFFFF" d="M19.7,38.1c0.5,0.6,1.4,2.4,1.7,3.1L30,65.9c0.2,0.4,0.2,1.1,0.7,1.1c0.4,0,0.5-0.8,0.6-1.1l4.5-12.5
					l4.4,11.8c0.2,0.5,0.4,1.8,0.9,1.8c0.4,0,0.5-0.6,0.7-1.2l8.5-24.5c0.7-2,1.6-4.1,2.9-4.3c0.5-0.1,0.8-0.3,0.8-0.3
					c0-0.4-0.1-0.4-0.6-0.4c-0.9,0-1.5,0.2-2.5,0.2c-1,0-1.8-0.1-2.7-0.1c-0.5,0-0.5,0.2-0.5,0.4c0,0.3,0.9,0.1,1.5,1.3
					c0.3,0.6,0.2,2-0.1,2.8l-7.3,19.9L39,52l-1.2-3.2c0,0-0.2,0.1,0.7-2.6l1.7-5.1c0.8-2.5,1.7-3.8,2.7-3.9c1.3,0,1.3-0.8,0.3-0.8
					c-1,0-1.6,0.1-2.5,0.1c-0.9,0-1.4-0.1-2.5-0.1c-0.4,0-0.8,0.1-0.8,0.4c0,0.3,0.6,0.2,1,0.4c0.7,0.4,1.1,1.8,0.6,3.3l-2,6.4
					l-2.3-6c-0.5-1.1-1.1-3.6,0-3.9c1.1-0.2,0.9-0.8,0.3-0.8c-1.2,0-1.9,0.2-3.1,0.2c-1.3,0-2.3-0.2-3.6-0.2c-0.3,0-0.8,0-0.6,0.6
					c0.1,0.3,0.7,0.2,1.1,0.4c1.5,1,1.8,2.2,2.3,3.7l3.3,9.4c0.6,1.7,0.6,1.1,0.2,2.5l-2.9,8l-7.1-20.5c-0.6-1.5-0.9-2.6,0.4-3.2
					c0.5-0.3,0.7-0.3,0.8-0.4c0.1-0.1,0.1-0.5-0.6-0.4c-1.3,0-2.1,0.2-3.4,0.2c-1.4,0-2.3-0.2-3.6-0.2c-0.4,0-0.5,0.2-0.5,0.5
					C17.9,37.3,18.9,37,19.7,38.1z"/>
				<path fill="#FFFFFF" d="M158.3,52V63c0,2.9-2,2.2-2.4,3c-0.2,0.4,0.4,0.5,0.9,0.5c0.5,0,1.2-0.2,3.2-0.2c2.2,0,2.9,0.2,3.6,0.2
					c0.6,0,1.2-0.2,0.8-0.6c-0.6-0.6-3.3,0.1-3.3-3V52.6c0-0.7,1.3-3.5,4.4-3.5c3,0,4.4,3.4,4.4,5.6V63c0,3.3-1.2,2.2-1.6,2.9
					c-0.2,0.4,0.2,0.5,0.7,0.5c0.5,0,1.3-0.2,2.7-0.2c1.8,0,2.6,0.2,3.1,0.2c0.4,0,1.1-0.3,0.6-0.6c-0.9-0.8-2.8,0.4-2.8-3v-7.4
					c0-3.4-1.1-8.4-6.1-8.4c-3.6,0-5.5,3.5-5.4,2.9v-2.6c0-0.4-0.2-0.7-0.5-0.7c-0.9,0-1.5,1.5-4.4,2.3c-0.2,0-0.7,0-0.7,0.4
					C155.4,50.5,158.3,48.3,158.3,52z"/>
				<path fill="#FFFFFF" d="M48.2,54.1c0.4,0.4,1.8-1.2,1.9-1.3c0.1-0.1,0.1-0.2,0.1-0.2c0-1.9,1.4-4.3,3.4-4.5
					c2.3-0.2,3.5,1.5,3.5,3.8v3c-8.8,1.8-10.1,4.7-10.1,7.1c0,3.2,2.2,4.6,4.7,4.6c2.1,0,4.2-1,5.7-2.6c0.5,1.5,1.5,2.4,2.9,2.3
					c0.5,0,0.6,0.1,2.1-0.5c0.5-0.1,0.5-0.1,1.1,0c0.8,0.3,1.9,0.8,3.9,0.8c2.9,0,5.6-2.7,5.6-6.1c0-2.1-0.6-3.4-3.5-5.2
					c-0.7-0.4-1.8-1-2.4-1.3c-2.4-1.3-3.3-2.1-3.4-3.3c-0.1-2.1,1.7-3.2,3.2-3c3.7-0.1,4.2,4.1,4.5,4.1c0.6,0,0.4-0.5,0.4-1.8
					c0-0.3,0-1.8-0.2-2.2c-0.5-0.7-3.1-1.1-3.7-1.1c-0.2,0-0.8,0-0.9,0c-0.2,0-0.4,0-0.4,0c-2.6,0-5.1,1.6-5,5.1
					c0.1,3.2,3.8,5,5.9,6.2c1.5,0.9,3.3,1.7,3.2,3.7c0,2.3-1.8,3.9-3.8,3.8c-4.6-0.1-3.9-5.8-4.8-5.8c-0.6,0-0.4,1.4-0.5,2.2
					c0,0.7,0,1.4,0,2c-0.1,0.5-0.3,1-0.8,1c-1.8,0.1-1.4-2.8-1.4-4.3v-9.3c-0.1-2.9-2.2-4.7-5.5-4.7C49.9,46.8,46.7,52.4,48.2,54.1z
					 M57.4,61.8c0,2.4-2.4,3.7-3.8,3.7c-2,0-3.4-1.3-3.4-3.9c0-4,4.8-4.7,7.2-5.3V61.8z"/>
				<path fill="#FFFFFF" d="M94.7,45.4c0.5,0,1.5-1.7,1.5-2.3c0-0.5-1.1-2.3-1.5-2.3c-0.4,0-1.5,1.8-1.5,2.3
					C93.2,43.6,94.3,45.4,94.7,45.4z"/>
				<path fill="#FFFFFF" d="M98.5,66.5C98.5,66.5,98.5,66.5,98.5,66.5c0.5,0,0.9,0,1.1,0c0.5,0,1.2-0.2,3.2-0.2
					c2.2,0,2.9,0.2,3.6,0.2c0.6,0,1.2-0.2,0.8-0.6c-0.6-0.6-3.3,0.1-3.3-3V52.6c0-0.7,1.3-3.5,4.4-3.5c3,0,4.4,3.4,4.4,5.6V63
					c0,2.9-1.2,2.2-1.6,2.9c-0.2,0.4,0.2,0.5,0.7,0.5c0.5,0,1.3-0.2,2.7-0.2c1.4,0,2.2,0.1,2.8,0.1c-0.4,0.6-0.7,1.3-0.7,2
					c-0.2,3.6,4.3,4.9,8,4.9c7.4-0.1,9.5-5.3,8-8c-1.6-2.8-5-2.7-8.2-2.7c-6.1,0-4.9-3.8-2.5-3.6c0.6,0,0.3,0.2,2.3,0.2
					c3.5,0,6.9-2.4,6.8-6.3c0-0.3,0.1-1.5-0.8-3.1c1.7,0,1,0,3.5,0l0,11.1c0,5,2.4,5.8,4.2,5.8c2.5,0,4.4-1.7,4.7-2.4
					c1.5,1.6,3.6,2.4,6,2.4c4.6,0,8.1-4.3,8.1-9.8c0-8.4-5.3-10.1-8.2-10.1c-4.7,0-8.4,4.8-8.4,10.3c0,2.8,0.8,5.1,2.1,6.7
					c-0.4,0.3-1.3,1-3.1,1c-1.6,0-2.4-0.9-2.5-2.9V49.8c0,0,4.6,0,4.9,0c0.3,0,0.9-2.1,1-2.2c0.1-0.3,0.1-0.5,0.2-0.7
					c0.1-0.4-0.2-0.4-0.5,0c-0.2,0.2-0.5,0.8-1.4,0.8h-4.1c0-3.5,0-5.1-0.5-5.1c-0.5,0-0.4,0.1-0.9,1.7c-0.6,2.1-2.6,3.2-3.8,3.9
					c-0.5,0.1-1.2,0.2-1.9,0c-1.1-0.2-2.3-1.5-5.5-1.5c-3.5,0-6.5,2.8-6.5,6.6c0,2,0.9,4,2.5,5c-0.3,0.2-2.2,1.8-2,3.7
					c0,0,0,2,1.5,2.6c-0.5,0.2-1,0.5-1.4,0.9c-1-0.4-2.5-0.1-2.5-2.8v-7.4c0-3.4-1.1-8.4-6.1-8.4c-3.6,0-5.5,3.5-5.4,2.9v-2.6
					c0-0.4-0.2-0.7-0.5-0.7c-0.9,0-1.1,1.4-4.2,2.2c-0.2,0-0.6,0.1-0.6,0.5c0,0.9,2.5-1,2.6,2.4V63c0,2.4-1.9,2.4-2.2,2.4
					c-0.1,0-0.3,0-0.4,0c-0.8-0.1-2.2-0.4-2.2-1.9v-16c0-0.4-0.2-0.7-0.5-0.7c-0.9,0-1.4,1.6-3.8,2.4c-0.2,0-0.5,0.1-0.5,0.4
					c0,0.9,2.2-0.9,2.1,2.5v10.5c0.1,2.6-1.3,2.9-2.1,3c-1-0.1-1.8-0.5-1.8-2.1v-7.5c0-3.8-1.5-8.8-6.3-8.8c-2.1,0-4,1.2-5.4,2.8
					V37.1c0-0.4-0.2-0.7-0.5-0.7c-0.6,0-1.5,1.7-4.3,2.4c-0.2,0-0.9,0.1-0.9,0.4c0,0.9,2.8-0.4,2.9,2.5v21.9c0,2.2-1.9,1.9-2.2,2.6
					c-0.1,0.3,0.1,0.4,0.4,0.4c0.6,0,2.3-0.2,3.4-0.2c1.2,0,3,0.2,3.8,0.2c0.5,0,0.6-0.1,0.6-0.6c-0.4-0.8-3.3,0.4-3.3-3.4V53
					c0-2.3,2.7-4,4.4-4c1.3,0,4.5,1,4.5,6.6v8.2c0,1.6-1.7,1.8-1.8,2.3c0,0.4,0.2,0.5,0.6,0.5c0.4,0,1.6-0.2,3.1-0.2
					c0.8,0,1.6,0,2.2,0.1c0.3,0.1,0.8,0.1,1.4,0.1c0.4,0,1.4-0.2,2.6-0.2c1.2,0,2.1,0.1,2.9,0.2c0.1,0,0.3,0,0.4,0
					C98.3,66.5,98.4,66.5,98.5,66.5z M147.8,48.1c4.5,0,6.1,4.8,6.1,9.4c0,5.6-2,7.9-5.1,7.9c-4.4,0-6.1-5.4-6.1-9.9
					C142.6,51.7,144.1,48.1,147.8,48.1z M123.9,47.6c3.1,0,4.3,3.1,4.3,5.9c0,2.8-1.3,5-4.1,5c-3,0-4-2.9-4-5.7
					C120,50,120.9,47.6,123.9,47.6z M121.1,65.1c0.3,0,0.4,0.1,3.8,0.2c3.6,0.1,4.8,1.1,5.1,2c0.4,1.6-0.8,5.1-5.9,4.8
					c-3.2-0.2-4.2-1.7-4.4-2.1C118.5,68.4,119.5,65.2,121.1,65.1z"/>
				<path fill="#FFFFFF" d="M100.5,79.7c0,0.3,0.8,1.6,1.1,1.6c0.3,0,1.1-1.2,1.1-1.6c0-0.4-0.7-1.6-1.1-1.6
					C101.3,78.1,100.5,79.4,100.5,79.7z"/>
				<path fill="#FFFFFF" d="M115.7,93.6v-5.2c0-2.4-0.8-5.9-4.3-5.9c-2.6,0-3.9,2.4-3.8,2.1v-1.8c0-0.3-0.2-0.5-0.3-0.5
					c-0.6,0-1.1,1-3.1,1.6c-0.1,0-0.5,0-0.5,0.3c0,0.7,2.1-0.9,2,1.7v7.8c0,1.5-0.7,1.6-1.2,1.7c0,0-0.1,0-0.1,0
					c-0.5,0-1.7-0.2-1.7-1.4V82.8c0-0.3-0.2-0.5-0.3-0.5c-0.6,0-1,1.1-2.7,1.7c-0.1,0-0.4,0.1-0.4,0.2c0,0.7,1.5-0.6,1.5,1.7v7.4
					c0.1,1.9-1,2.1-1.5,2.1c-0.9,0-0.6,0.1-0.6,0.4c0,0.3,0.5,0.3,1.4,0.3c0.3,0,1-0.1,1.9-0.1c1.1,0,1.9,0.1,2.5,0.1
					c0.3,0,1.2-0.1,2.6-0.1c1.5,0,2.1,0.1,2.5,0.1c0.4,0,0.9-0.2,0.6-0.4c-0.4-0.4-2.3,0.1-2.3-2.1v-7.2c0-0.5,0.9-2.4,3.1-2.4
					c2.1,0,3.1,2.4,3.1,3.9v5.9c0,2.3-0.8,1.6-1.1,2c-0.2,0.3,0.1,0.4,0.5,0.4c0.3,0,0.9-0.1,1.9-0.1c1.3,0,1.9,0.1,2.2,0.1
					c0.3,0,0.7-0.2,0.4-0.4C117,95.1,115.7,95.9,115.7,93.6z"/>
				<path fill="#FFFFFF" d="M141.5,93c-0.3,0-1.1,1.3-1.1,1.7c0,0.3,0.8,1.6,1.1,1.6c0.3,0,1.1-1.3,1.1-1.6S141.9,93,141.5,93z"/>
				<path fill="#FFFFFF" d="M175.9,94.1v-11c0-0.6-0.3-0.8-0.4-0.8c-0.4,0-0.6,0.1-0.9,0.2c-0.3,0.1-0.6,0.2-1.3,0.2
					c-0.1,0-0.8-0.1-0.8,0.3c0,0.4,1.6,0.2,1.6,1.3v8c-0.1,1.4-1.3,2.9-2.7,2.9c-0.3,0-2.4-0.2-2.4-3.7v-8.3c0-0.6-0.3-0.8-0.4-0.8
					c-0.4,0-0.6,0.1-0.9,0.2c-0.3,0.1-0.6,0.2-1.3,0.2c-0.4,0-0.8-0.1-0.7,0.3c0.1,0.3,1.6,0,1.6,1.3v7.7c0,2.8,1.6,4.4,3.6,4.4
					c1.3,0,2.5-0.3,3.3-1.8h0.1v1.3c0,0.1,0,0.5,0.2,0.5c0.4,0,0.6-0.3,0.8-0.4c0.3-0.1,0.4-0.3,1.3-0.4c0.4,0,0.8-0.2,0.8-0.5
					C177.2,94.4,175.9,95,175.9,94.1z"/>
				<path fill="#FFFFFF" d="M160.3,82.3c-3.3,0-5.9,3.3-5.9,7.3c0,1.8,0.4,3.2,1.2,4.3c-0.8,0.6-2.3,1.1-5.1,1.1c-2.2,0-2-0.7-2-2.6
					V77.7c0-2.7,2-1.9,2.1-2.4c0-0.3-0.3-0.3-0.6-0.3c-0.4,0-1.1,0.2-2.6,0.2c-1.3,0-2.4-0.1-2.9-0.1c-0.3,0-0.6,0.1-0.5,0.4
					c0.3,0.6,2.2,0.1,2.2,1.7v15.4c0,1.5,0.2,2.4-0.5,2.8c-0.8,0.5-1.8,0.5-1.7,0.8c0.1,0.2,0.5,0.2,0.7,0.2c1,0,2.5-0.1,3.5-0.2
					c2-0.1,3.9,0.1,5.9,0.1c1.1,0,1.4-0.2,2.3-1.4c0,0,0,0,0.1-0.1c1,1,2.4,1.5,3.9,1.5c3.2,0,5.7-3,5.7-6.9
					C166,83.5,162.3,82.3,160.3,82.3z M160.6,95.4c-3.1,0-4.3-3.8-4.3-6.9c0-2.7,1.1-5.2,3.6-5.2c3.1,0,4.3,3.4,4.3,6.6
					C164.2,93.8,162.8,95.4,160.6,95.4z"/>
				<path fill="#FFFFFF" d="M127.9,84.7c-0.8-0.4-1.9-1.1-2.4-1.4c-2.4-1.4-3.4-2.3-3.4-3.6c-0.1-2.2,2.1-3.6,3.7-3.4
					c2,0,3.6,1.2,4.3,3.8c0.1,0.3,0.3,0.9,0.6,0.9c0.2,0,0.3-0.2,0.2-0.5l-0.3-4.1c0-0.3-0.1-0.4-0.3-0.4c-0.2,0-0.4,0.3-0.6,0.3
					c-0.3,0-1.1-1.1-3.9-1.1c-0.2,0-0.4,0-0.4,0c-2.7,0-5.2,1.7-5.1,5.5c0.1,3.4,3.9,5.4,6,6.7c1.5,0.9,3.1,2.4,3.1,4
					c-0.1,2.5-1.7,4.2-3.6,4c-4.7-0.1-4-6.2-4.9-6.2c-0.6,0-0.5,1.5-0.5,2.4c0,2-0.1,3.6,0.1,3.8c0.1,0.1,0.3,0,0.8,0
					c0.9,0,2,1.1,4.7,1.1c3,0,5.5-2.7,5.5-6.4C131.5,88,130.8,86.6,127.9,84.7z"/>
				<path fill="#FFFFFF" d="M180.6,81.3c0.3,0,1.1-1.2,1.1-1.6c0-0.4-0.7-1.6-1.1-1.6c-0.3,0-1.1,1.3-1.1,1.6S180.3,81.3,180.6,81.3
					z"/>
				<path fill="#FFFFFF" d="M183.3,95.4c-0.5,0-1.7-0.2-1.7-1.4V82.8c0-0.3-0.2-0.5-0.3-0.5c-0.6,0-1,1.1-2.7,1.7
					c-0.1,0-0.4,0.1-0.4,0.2c0,0.7,1.5-0.6,1.5,1.7v7.4c0.1,1.9-1,2.1-1.5,2.1c-0.9,0-0.6,0.1-0.6,0.4c0,0.3,0.5,0.3,1.4,0.3
					c0.3,0,1-0.1,1.9-0.1c1.1,0,1.9,0.1,2.5,0.1C183.5,96.1,184,95.3,183.3,95.4z"/>
				<path fill="#FFFFFF" d="M189.4,88.4c-0.5-0.2-1.3-0.7-1.7-0.9c-1.7-0.9-2.3-1.5-2.4-2.3c-0.1-1.5,1.2-2.2,2.3-2.1
					c2.6,0,2.9,2.8,3.2,2.8c0.4,0,0.3-0.4,0.3-1.2c0-0.2,0-1.3-0.1-1.5c-0.3-0.5-2.1-0.8-2.6-0.8c-0.1,0-0.5,0-0.6,0
					c-0.1,0-0.3,0-0.3,0c-1.8,0-3.6,1.1-3.5,3.6c0.1,2.2,2.7,3.5,4.1,4.4c1.1,0.6,2.3,1.2,2.3,2.6c0,1.6-1.3,2.7-2.7,2.6
					c-3.2-0.1-2.8-4.1-3.3-4.1c-0.4,0-0.3,1-0.3,1.5c0,1.3-0.1,2.3,0.1,2.5c0,0.1,0.2,0,0.5,0c0.6,0,1.4,0.7,3.2,0.7
					c2.1,0,3.9-1.9,3.9-4.3C191.8,90.6,191.4,89.6,189.4,88.4z"/>
				<path fill="#FFFFFF" d="M139.7,94.2c-0.3,0.1-0.9,0.8-2.3,0.8c-1.1,0-1.7-0.6-1.8-2v-9c0,0,3.3,0,3.4,0c0.2,0,0.7-1.5,0.7-1.5
					c0-0.2,0.1-0.3,0.1-0.5c0-0.3-0.2-0.3-0.4,0c-0.2,0.2-0.3,0.6-1,0.6h-2.9c0-2.5,0-3.1-0.4-3.1c-0.4,0-0.3,0.1-0.6,1.2
					c-0.6,1.8-2.6,2.6-3.2,3c-0.2,0.1-0.1,0.1-0.2,0.2c0,0.2,0.8,0.1,2.4,0.2l0,8.2c0,3.5,1.7,4.1,2.9,4.1c1.9,0,3.3-1.4,3.3-1.8
					C139.9,94.2,139.9,94.1,139.7,94.2z"/>
				<path fill="#FFFFFF" d="M56.9,93c-0.6,0-1.5,1.6-3.7,1.6c-1.6,0-4.3-1.6-4.3-6.8h7c0.6,0,0.9,0,0.9-0.5c0-1.3-1.4-5-4.7-5
					c-3.3,0-5.2,3.4-5.2,7.4c0,2.1,1.4,6.5,5.3,6.5c2.4,0,4.7-2.3,4.7-3C57,93.2,57,93,56.9,93z M51.7,83.1c1.5,0,2.9,1.6,2.9,3.4
					c0,0.5-0.2,0.6-0.5,0.6h-5.2C48.9,85.3,50.1,83.1,51.7,83.1z"/>
				<path fill="#FFFFFF" d="M19.1,75.3c-0.4,0-1.4,0.1-1.8,0.1c-0.9,0-1.7-0.1-2.6-0.1c-0.1,0-0.5,0.1-0.5,0.2
					c0,0.6,2.2-0.1,2.2,2.6V89c0,3.2-1,6.5-5.4,6.5c-3.1,0-4.9-2-4.9-6.3V77.5c0-1.9,1.5-1.5,1.6-2c0-0.4-1.3-0.2-1.5-0.2
					c-0.7,0-1.2,0.1-2,0.1c-0.6,0-1.4-0.1-2-0.1c-0.1,0-0.5,0-0.6,0.2c-0.2,0.6,1.9,0.3,1.9,1.9v11.1c0,4.2,1.2,8.2,7.3,8.1
					c7.3-0.1,7.1-6.7,7.1-8V78.2c0-2.5,1.2-2.2,1.4-2.6C19.5,75.4,19.2,75.3,19.1,75.3z"/>
				<path fill="#FFFFFF" d="M48.2,83c0.2-0.2,0.2-0.5-0.6-0.5c-0.4,0-0.8,0.1-1.2,0.1c-0.6,0-0.7,0-1.2,0c-0.7,0-0.9,0.1-0.8,0.3
					c0.1,0.6,1.6,0,1.4,1.8c-0.2,1.5-0.7,2.8-1.2,4.1l-1.8,4.7l-2.6-7.8c-0.3-1-0.4-1.5-0.4-1.6c0-1,1.2-0.8,1.4-1.2
					c0.2-0.3-0.2-0.4-0.5-0.4c-0.3,0-0.7,0.1-1.7,0.1c-0.8,0-1.4,0-1.7,0c-0.9-0.2-0.8,0.3-0.5,0.5c0.3,0.2,0.5,0,0.9,1.4l4,11.3
					c0.1,0.2,0.2,0.8,0.5,0.8c0.4,0,0.4-0.4,0.9-1.7c0,0,3.8-10.7,4.1-11.1C47.6,82.9,48,83.2,48.2,83z"/>
				<path fill="#FFFFFF" d="M62.9,82.5c-1.1,0-1.8,1.3-2.4,2.2h-0.1v-2c0-0.3-0.2-0.5-0.3-0.5c-0.4,0-0.7,0.8-2.9,1.4
					c-0.1,0-0.5,0.1-0.5,0.3c0,0.7,1.9-0.2,1.9,2V94c0,1.3-1.3,1.1-1.3,1.8c0,0.2,0.1,0.3,0.3,0.3c0.2,0,0.6-0.1,2.4-0.1
					c1.4,0,2.1,0.1,2.4,0.1c0.3,0,0.4-0.1,0.4-0.3c0-1-2.3,0.5-2.3-2.4v-7c0-0.4,0.6-1.8,1.7-1.8c0.9,0,1,0.7,1.5,0.7
					c0.3,0,0.9-0.9,0.9-1.4C64.6,83.3,63.4,82.5,62.9,82.5z"/>
				<polygon fill="#FFFFFF" points="91.2,96.2 91.1,96.4 91.1,96.4 				"/>
				<path fill="#FFFFFF" d="M96,82.6c-0.3,0-1,0-1.6,0c-0.8,0-1.2-0.1-1.5-0.1c-0.5,0-1,0-0.9,0.3c0.1,0.4,1.8,0.2,1.8,2.1
					c0,0.2,0,0.5-0.3,1.7l-2.1,6.8l-2.9-8.3c0,0-0.1-0.3-0.1-0.8c0-1.3,1.6-1.2,1.6-1.4c0.1-0.2-0.2-0.4-0.6-0.4c-0.4,0-1.1,0-2.1,0
					c-0.2,0-0.3,0-0.4,0c0,0,0,0,0,0h-1.2c0,0,0,0,0,0h-2.9c0-2.5,0-3.1-0.4-3.1c-0.4,0-0.3,0.1-0.6,1.2c-0.6,1.8-2.6,2.6-3.2,3
					c-0.2,0.1-0.1,0.1-0.2,0.2c0,0.2,0.8,0.1,2.4,0.2l0,8.2c0,3.5,1.7,4.1,2.9,4.1c1.9,0,3.3-1.4,3.3-1.8c0-0.3,0-0.3-0.2-0.3
					c-0.3,0.1-0.9,0.8-2.3,0.8c-1.1,0-1.7-0.6-1.8-2v-9c0,0,2.6,0,3.3,0C86,84,86,84,86,84.1l3,8.6c0.2,0.7,0.4,0.9,0.7,2.2
					c0.2,0.8,0.1,1.5,0.1,1.5c-0.3,1.3-1.1,2-2.3,4.4c-0.1,0.2,1.7,0,1.8-0.1c0.2,0,0.1-0.1,0.3-0.4l1.3-4l3.8-11.6
					c0.6-2,1.4-1.6,1.6-1.9C96.5,82.7,96.4,82.6,96,82.6z"/>
				<path fill="#FFFFFF" d="M77.2,79.7c0-0.4-0.7-1.6-1.1-1.6c-0.3,0-1.1,1.3-1.1,1.6s0.8,1.6,1.1,1.6
					C76.5,81.3,77.2,80.1,77.2,79.7z"/>
				<path fill="#FFFFFF" d="M78.8,95.4c-0.5,0-1.7-0.2-1.7-1.4V82.8c0-0.3-0.2-0.5-0.3-0.5c-0.6,0-1,1.1-2.7,1.7
					c-0.1,0-0.4,0.1-0.4,0.2c0,0.7,1.5-0.6,1.5,1.7v7.4c0.1,1.9-1,2.1-1.5,2.1c-0.9,0-0.6,0.1-0.6,0.4c0,0.3,0.5,0.3,1.4,0.3
					c0.3,0,1-0.1,1.9-0.1c1.1,0,1.9,0.1,2.5,0.1C79.1,96.1,79.5,95.3,78.8,95.4z"/>
				<path fill="#FFFFFF" d="M33.4,79.7c0,0.3,0.8,1.6,1.1,1.6c0.3,0,1.1-1.2,1.1-1.6c0-0.4-0.7-1.6-1.1-1.6
					C34.1,78.1,33.4,79.4,33.4,79.7z"/>
				<path fill="#FFFFFF" d="M37.1,95.4c-0.5,0-1.7-0.2-1.7-1.4V82.8c0-0.3-0.2-0.5-0.3-0.5c-0.6,0-1,1.1-2.7,1.7
					c-0.1,0-0.4,0.1-0.4,0.2c0,0.7,1.5-0.6,1.5,1.7v7.4c0.1,1.9-1,2.1-1.5,2.1c-0.1,0-0.1,0-0.2,0c-0.6-0.1-1.1-0.3-1.1-1.8v-5.2
					c0-2.4-0.8-5.9-4.3-5.9c-2.6,0-3.9,2.4-3.8,2.1v-1.8c0-0.3-0.2-0.5-0.3-0.5c-0.6,0-1.1,1-3.1,1.6c-0.1,0-0.5,0-0.5,0.3
					c0,0.7,2.1-0.9,2,1.7v7.8c0,2-1.4,1.5-1.7,2.1c-0.2,0.3,0.3,0.3,0.6,0.3c0.3,0,0.8-0.1,2.2-0.1c1.5,0,2.1,0.1,2.5,0.1
					c0.4,0,0.9-0.2,0.6-0.4c-0.4-0.4-2.3,0.1-2.3-2.1v-7.2c0-0.5,0.9-2.4,3.1-2.4c2.1,0,3.1,2.4,3.1,3.9v5.9c0,2.3-0.8,1.6-1.1,2
					c-0.2,0.3,0.1,0.4,0.5,0.4c0.3,0,0.9-0.1,1.9-0.1c1.3,0,1.9,0.1,2.2,0.1c0,0,0.1,0,0.1,0c0.1,0,0.2,0,0.4,0c0.3,0,1-0.1,1.9-0.1
					c1.1,0,1.9,0.1,2.5,0.1C37.4,96.1,37.8,95.3,37.1,95.4z"/>
				<path fill="#FFFFFF" d="M70.5,88.4c-0.5-0.2-1.3-0.7-1.7-0.9c-1.7-0.9-2.3-1.5-2.4-2.3c-0.1-1.5,1.2-2.2,2.3-2.1
					c2.6,0,2.9,2.8,3.2,2.8c0.4,0,0.3-0.4,0.3-1.2c0-0.2,0-1.3-0.1-1.5c-0.3-0.5-2.1-0.8-2.6-0.8c-0.1,0-0.5,0-0.6,0
					c-0.1,0-0.3,0-0.3,0c-1.8,0-3.6,1.1-3.5,3.6c0.1,2.2,2.7,3.5,4.1,4.4c1.1,0.6,2.3,1.2,2.3,2.6c0,1.6-1.3,2.7-2.7,2.6
					c-3.2-0.1-2.8-4.1-3.3-4.1c-0.4,0-0.3,1-0.3,1.5c0,1.3-0.1,2.3,0.1,2.5c0,0.1,0.2,0,0.5,0c0.6,0,1.4,0.7,3.3,0.7
					c2.1,0,3.9-1.9,3.9-4.3C72.9,90.6,72.5,89.6,70.5,88.4z"/>
			</g>
		</g>
		<g>
			<path fill="#FFFFFF" d="M96.7,3.5L96.7,3.5L96.7,3.5C96.7,3.5,96.7,3.5,96.7,3.5L96.7,3.5c-0.1,0-6.4,0.1-15.2-1.8V27v0.1
				c0,0.4,0,0.7,0,0.7l0,0l0,0c0.1,1.2,0.4,2.1,1.1,2.9c0.5,0.5,1.1,1,2,1.5c0.2,0.1,0.5,0.3,0.8,0.4c0.2,0.1,0.4,0.2,0.7,0.3v0l0,0
				c0.2,0.1,0.8,0.3,1,0.4l9.6,3.6v0l0,0l0,0v0l9.6-3.6c0.2-0.1,0.8-0.3,1-0.4l0,0v0c0.2-0.1,0.5-0.2,0.7-0.3
				c0.3-0.1,0.6-0.3,0.8-0.4c0.9-0.5,1.5-1,2-1.5c0.7-0.8,1-1.7,1.1-2.9l0,0l0,0c0,0,0-0.3,0-0.7V27V1.8
				C103.1,3.6,96.8,3.5,96.7,3.5z M110.6,26.5L110.6,26.5c0,0.4,0,0.7,0,0.7l0,0l0,0c-0.1,1.1-0.4,1.9-1,2.7c-0.4,0.5-1,0.9-1.8,1.4
				c-0.2,0.1-0.5,0.2-0.7,0.4c-0.2,0.1-0.4,0.2-0.6,0.3v0l0,0c-0.2,0.1-0.7,0.3-0.9,0.4l-8.7,3.3v0l0,0l0,0v0l-8.7-3.3
				c-0.2-0.1-0.7-0.3-0.9-0.4l0,0v0c-0.2-0.1-0.4-0.2-0.6-0.3c-0.3-0.1-0.5-0.2-0.7-0.4c-0.8-0.5-1.4-0.9-1.8-1.4
				c-0.6-0.7-1-1.6-1-2.7l0,0l0,0c0,0,0-0.3,0-0.6v0V3.4C90.8,5.1,96.6,5,96.7,5v0c0,0,0,0,0,0l0,0v0c0.1,0,5.8,0.1,13.9-1.6V26.5z"
				/>
			<path fill="#FFFFFF" d="M96.7,6.4L96.7,6.4L96.7,6.4C96.7,6.4,96.7,6.4,96.7,6.4L96.7,6.4c-0.1,0-5.3,0-12.7-1.5v5.9
				c7.3,1.5,12.6,1.5,12.7,1.5v0c0,0,0,0,0,0l0,0v0c0.1,0,5.3,0,12.7-1.5V4.9C102,6.4,96.8,6.4,96.7,6.4z M90,11l-1.5-1.1L87,11
				l0.6-1.8L86,8.1l1.9,0l0.6-1.8l0.6,1.8l1.9,0l-1.5,1.1L90,11z M104.3,8.1l0.6-1.8l0.6,1.8l1.9,0l-1.5,1.1l0.6,1.8l-1.5-1.1
				l-1.5,1.1l0.6-1.8l-1.5-1.1L104.3,8.1z M99.2,8.8l-1.5,1.1l0.6,1.8l-1.5-1.1l-1.5,1.1l0.6-1.8l-1.5-1.1l1.9,0L96.7,7l0.6,1.8
				L99.2,8.8z"/>
			<path fill="#FFFFFF" d="M96.7,25.4L96.7,25.4L96.7,25.4C96.7,25.4,96.7,25.4,96.7,25.4L96.7,25.4c-0.1,0-5.3,0-12.7-1.5v2.1
				c0,0.3,0,0.6,0,0.6l0,0l0,0c0,1,0.3,1.8,0.9,2.4c0.4,0.4,0.9,0.8,1.7,1.3c0.2,0.1,0.4,0.2,0.7,0.3c0.2,0.1,0.4,0.2,0.6,0.3v0l0,0
				c0.2,0.1,0.7,0.3,0.8,0.4l8,3v0l0,0l0,0v0l8-3c0.2-0.1,0.7-0.3,0.8-0.4l0,0v0c0.2-0.1,0.4-0.2,0.6-0.3c0.2-0.1,0.5-0.2,0.7-0.3
				c0.7-0.4,1.3-0.8,1.7-1.3c0.6-0.7,0.9-1.4,0.9-2.4l0,0l0,0c0,0,0-0.2,0-0.6v0V24C102,25.5,96.8,25.4,96.7,25.4z M87.9,29.6
				l-0.3,0.3l-0.5-0.4v-0.4h0.8V29.6z M87.9,28.7h-0.4v-0.7L87,27.6l0,0L86.5,28l-0.4-0.4V27h1.2l0.6,0.6V28.7z M88.5,30.7L88,30.2
				l0.2-0.4v-0.7h0.4v0.7l0.2,0.4L88.5,30.7z M88.9,27L88.9,27l-0.2,0.7v1.1h-0.4v-1.1L88,27h0v0l0,0v-1.2l0,0l0.5-0.5l0.5,0.5V27z
				 M89.9,29.5l-0.5,0.4L89,29.6v-0.5h0.8V29.5z M90.8,27.6L90.5,28l-0.6-0.4l0,0l-0.4,0.5v0.7H89v-1.1l0.6-0.6h1.2V27.6z
				 M95.9,32.1l-0.4,0.5l-0.7-0.6v-0.6h1.2V32.1z M95.9,30.9h-0.6v-0.9l-0.6-0.7l0,0l-0.8,0.5l-0.5-0.5v-0.8h1.8l0.8,0.9V30.9z
				 M96.7,33.7L96,32.9l0.3-0.6v-1H97v1l0.3,0.6L96.7,33.7z M104.3,29.6l-0.3,0.3l-0.5-0.4v-0.4h0.8V29.6z M105.4,27.6L106,27h1.2
				v0.6l-0.4,0.4l-0.6-0.4l0,0l-0.4,0.5v0.7h-0.4V27.6z M105.4,29.1h0.8v0.4l-0.5,0.4l-0.3-0.3V29.1z M104.4,27L104.4,27v-1.2l0,0
				l0.5-0.5l0.5,0.5V27h0l-0.2,0.7v1.1h-0.4v-1.1L104.4,27L104.4,27L104.4,27z M104.7,29.7v-0.7h0.4v0.7l0.2,0.4l-0.5,0.6l-0.5-0.6
				L104.7,29.7z M102.5,27h1.2l0.6,0.6v1.1h-0.4v-0.7l-0.4-0.5l0,0l-0.6,0.4l-0.4-0.4V27z M97.5,29.3l0.8-0.9h1.8v0.8l-0.5,0.5
				l-0.8-0.5l0,0l-0.6,0.7v0.9h-0.6V29.3z M97.5,31.3h1.2v0.6l-0.7,0.6l-0.4-0.5V31.3z M97.3,28.3L97.3,28.3L97,29.3v1.6h-0.6v-1.6
				L96,28.3h0v0l0,0l0,0v-1.8l0,0l0.7-0.7l0.7,0.7V28.3z"/>
			<polygon fill="#FFFFFF" points="97.3,22.2 96.7,22.8 96.1,22.2 95.7,21.9 90.6,21.9 90.6,14.4 89.6,15.2 89.6,23 95.5,23 
				96.1,23.4 96.7,24 97.3,23.4 97.8,23 103.8,23 103.8,15.2 102.7,14.4 102.7,21.9 97.7,21.9 			"/>
			<polygon fill="#FFFFFF" points="96.1,13.9 95.9,13.8 91.7,13.8 91.7,20.9 95.9,20.9 96.2,21.1 96.7,21.5 97.2,21.1 97.5,20.9 
				101.7,20.9 101.7,13.8 97.5,13.8 97.3,13.9 96.7,14.5 			"/>
			<path fill="#FFFFFF" d="M104.9,20.8c1.4-0.2,2.9-0.5,4.5-0.8V18v-2.9c-1.6,0.3-3.1,0.6-4.5,0.8V20.8z"/>
			<path fill="#FFFFFF" d="M88.5,16c-1.4-0.2-2.9-0.5-4.5-0.8V18V20c1.6,0.3,3.1,0.6,4.5,0.8V16z"/>
		</g>
	</g>
	<g>
		<path fill-rule="evenodd" clip-rule="evenodd" fill="#FFFFFF" d="M75.3,120.8c0,0,2.4-1.4,2.3-3.9c-0.1-2.4-1.4-3.2-2.3-3.2
			c-1,0-2.1,0.7-2.2,2.9C72.9,119.1,75.3,120.8,75.3,120.8L75.3,120.8z M78.9,127.7c-0.9-1.2-1.8-2.4-3-3.5
			c-0.8-0.9-1.6-1.6-1.6-1.6s-0.9,0.7-1.5,1.3c-0.5,0.6-1.3,2-1.1,3.9c0.3,2.7,2.2,3.4,3.9,3.2c1.7-0.2,3.4-3.1,3.4-3.1L78.9,127.7
			L78.9,127.7z M84.5,132.5H82l-0.2-0.3l-0.5-0.9c-0.3-0.4-0.8-1.3-1.7-2.6c-1.9,2.6-3.1,3.9-5.2,3.9c-3.4,0-4.5-2.8-4.5-5.1
			c0-1.5,0.5-2.8,1.4-3.8c0.6-0.6,1.3-1.2,2.2-1.8c-1.3-1.1-2.1-2.3-2.1-4c0-3.1,2-5.1,4-5.1c2,0,3.7,1.7,3.7,4.3
			c0,1.3-0.4,1.9-1.1,2.8c-0.4,0.5-1.1,1.2-1.8,1.8c-0.1,0.1,1.7,1.9,1.9,2.1l2,2.4c0,0,2.3-4.4,1.9-5.1c-0.3-0.6-1.9-0.7-1.9-0.7
			l0-0.8h5.7l0,0.8c-0.5,0-1.4,0.2-2.1,0.9c-0.3,0.4-2.9,5.5-2.9,5.5s1.9,2.7,2.1,3c0,0,0.3,0.5,0.5,0.7l0.1,0.2
			C83.9,131.5,83.9,131.6,84.5,132.5L84.5,132.5z"/>
		<path fill-rule="evenodd" clip-rule="evenodd" fill="#FFFFFF" d="M34.1,119.8c0-0.9,0.1-0.9,1.2-0.9c1.4,0,2.7,0.9,2.7,3
			c0,1-0.3,2.2-1,2.7c-0.5,0.4-1.2,0.5-1.7,0.5h-1.2V119.8L34.1,119.8z M34.1,126h0.8c0.7,0,0.9,0.1,1.3,0.9
			c0.4,0.9,1.2,2.4,1.8,3.4c0.7,1.2,1.7,2,3.8,2h0.4l0.1-0.6c-0.6-0.2-1-0.6-1.3-0.9c-0.4-0.5-0.9-1.2-1.5-2.3
			c-0.5-0.9-1.4-2.5-1.7-3.1c1.4-0.6,2.5-1.7,2.5-3.7c0-1.4-0.5-2.4-1.3-2.9c-0.7-0.5-1.8-0.7-2.9-0.7h-5.6v0.7
			c1.6,0.2,1.8,0.3,1.8,2.6v7.4c0,2.3-0.2,2.5-1.8,2.6v0.7h5.7v-0.7c-1.7-0.2-1.8-0.3-1.8-2.6V126L34.1,126z"/>
		<path fill="#FFFFFF" d="M46.7,128.7c0,2.3-0.2,2.5-1.9,2.6v0.7h6v-0.7c-1.9-0.2-2-0.3-2-2.6V119h1.2c1.1,0,1.7,0.2,2.1,0.6
			c0.3,0.3,0.5,0.9,0.7,2.2l0.6-0.1c-0.1-1.4-0.2-3.3-0.2-4.2h-0.3c-0.3,0.4-0.4,0.5-0.9,0.5h-8c-0.5,0-0.7-0.1-1-0.5h-0.3
			c0,1.1-0.2,2.6-0.2,4.3h0.6c0.2-1.2,0.5-1.8,0.7-2.1c0.3-0.4,0.8-0.7,2.3-0.7h0.8V128.7L46.7,128.7z"/>
		<path fill="#FFFFFF" d="M54.2,127.6c0.2,1.4,0.5,3.2,0.6,3.6c0.4,0.3,1.7,1.1,3.3,1.1c2.5,0,4.4-1.8,4.4-4.4
			c0-2.6-1.9-3.7-3.6-4.4c-1.2-0.5-2.4-1.1-2.4-2.7c0-1.2,0.7-2.3,2-2.3c1.5,0,2.4,1.4,2.8,3.2l0.6-0.1c-0.2-1.5-0.3-2.6-0.5-3.5
			c-0.5-0.2-1.4-0.6-2.6-0.6c-2.5,0-4.2,1.7-4.2,4.2c0,2.5,2.1,3.4,3.4,4.1c1.2,0.6,2.5,1.3,2.5,3.1c0,1.5-0.9,2.5-2.3,2.5
			c-1.7,0-3.1-2.2-3.4-3.8L54.2,127.6L54.2,127.6z"/>
		<path fill-rule="evenodd" clip-rule="evenodd" fill="#FFFFFF" d="M21.3,116.3l2.3,6.8l-4.4,0L21.3,116.3L21.3,116.3z M20,117.5
			l-3.6,10.6c-0.9,2.8-1.1,3-2.8,3.2v0.7h5.5v-0.7l-0.9-0.1c-1.2-0.1-1.4-0.5-0.9-2.3c0.4-1.3,1.2-3.8,1.5-4.6l5.2,0
			c0.7,2.3,1.5,4.7,1.7,5.5c0.3,1,0.2,1.3-0.8,1.5l-0.8,0.1v0.7h6.3v-0.7c-1.6-0.2-1.9-0.4-2.8-3c-1-3.2-5.2-15.7-5.2-15.7l-0.6,0.3
			L20,117.5L20,117.5z"/>
		<path fill="#FFFFFF" d="M91.2,127c0.2,1.6,0.5,3.7,0.7,4.4c0.3,0.1,0.7,0.4,1.3,0.6c0.6,0.2,1.4,0.4,2.3,0.4
			c3.1,0,5.4-2.7,5.4-6.1c0-3.6-2.6-5-4.2-5.8c-1.8-1-3.1-1.7-3.1-3.8c0-1.7,0.8-3.2,2.6-3.2c2.2,0,2.9,2,3.3,3.7l0.6-0.1
			c-0.2-1.8-0.3-2.9-0.4-4c-0.3-0.1-0.6-0.2-0.9-0.3c-0.5-0.2-1.3-0.4-2-0.4c-3.2,0-5,2.5-5,5.4c0,3.5,3.3,5,4.1,5.5
			c1.5,0.9,3.1,1.9,3.1,4.4c0,2.3-1.4,3.8-3.3,3.8c-2.6,0-3.5-3.2-3.9-4.6L91.2,127L91.2,127z"/>
		<path fill="#FFFFFF" d="M113.2,121.8c-0.1-1.4-0.2-2.6-0.3-3.8c-0.6-0.2-1.9-0.6-3.6-0.6c-3.9,0-7,3.1-7,7.6
			c0,3.6,2.1,7.2,6.8,7.2c1.4,0,3.1-0.4,3.7-0.6c0.3-0.8,0.7-2.7,1-3.9l-0.6-0.1c-1,2.5-1.9,3.7-3.9,3.7c-2.8,0-4.6-2.7-4.6-6.7
			c0-3.5,1.6-6.2,4.4-6.2c1.8,0,3.1,0.8,3.6,3.5L113.2,121.8L113.2,121.8z"/>
		<path fill="#FFFFFF" d="M118.9,121.2c0-2.3,0.2-2.5,1.8-2.6v-0.7h-5.6v0.7c1.7,0.2,1.8,0.3,1.8,2.6v7.4c0,2.3-0.2,2.5-1.8,2.6v0.7
			h5.6v-0.7c-1.7-0.2-1.8-0.3-1.8-2.6V121.2L118.9,121.2z"/>
		<path fill="#FFFFFF" d="M124.2,128.6c0,2.3-0.1,2.5-1.9,2.6v0.7h9.8c0.2-0.6,0.5-2.9,0.7-3.7l-0.7-0.1c-0.3,1.1-0.6,1.8-0.9,2.1
			c-0.4,0.5-1.2,0.7-2.3,0.7c-1.2,0-1.7,0-2.1-0.3c-0.4-0.2-0.5-0.9-0.5-2.1v-3.4h2c1.6,0,1.7,0.1,1.9,1.8h0.6v-4.6h-0.6
			c-0.2,1.6-0.3,1.7-1.9,1.7h-2v-4.5c0-0.8,0-0.8,0.7-0.8h1.4c1.2,0,1.8,0.3,2.1,0.6c0.3,0.3,0.5,0.9,0.6,2l0.6-0.1
			c-0.1-1.4-0.2-2.9-0.2-3.5h-9.1v0.7c1.6,0.1,1.8,0.3,1.8,2.6V128.6L124.2,128.6z"/>
		<path fill="#FFFFFF" d="M145.4,123.8c0-2.3,0.1-3.4,0.2-4.1c0.1-0.8,0.6-1.1,1.7-1.2v-0.7h-4.9v0.7c1.3,0.1,1.9,0.4,2,1.2
			c0.1,0.7,0.2,1.8,0.2,4.1v4.4h-0.1l-7.7-10.3h-3.2v0.7c1.8,0.2,2.2,0.6,2.2,3.2v4.2c0,2.3-0.1,3.4-0.2,4c-0.1,0.8-0.6,1.1-1.7,1.2
			v0.7h4.9v-0.7c-1.3-0.1-1.9-0.4-1.9-1.2c-0.1-0.7-0.2-1.8-0.2-4v-4.6h0l7.9,10.7h0.8V123.8L145.4,123.8z"/>
		<path fill="#FFFFFF" d="M158.6,121.8c-0.1-1.4-0.2-2.6-0.3-3.8c-0.6-0.2-1.9-0.6-3.6-0.6c-3.9,0-7,3.1-7,7.6
			c0,3.6,2.1,7.2,6.8,7.2c1.4,0,3.1-0.4,3.7-0.6c0.3-0.8,0.7-2.7,1-3.9l-0.6-0.1c-1,2.5-1.9,3.7-3.9,3.7c-2.8,0-4.6-2.7-4.6-6.7
			c0-3.5,1.6-6.2,4.4-6.2c1.8,0,3.1,0.8,3.6,3.5L158.6,121.8L158.6,121.8z"/>
		<path fill="#FFFFFF" d="M161.9,128.6c0,2.3-0.1,2.5-1.9,2.6v0.7h9.8c0.2-0.6,0.5-2.9,0.7-3.7l-0.7-0.1c-0.3,1.1-0.6,1.8-0.9,2.1
			c-0.4,0.5-1.2,0.7-2.3,0.7c-1.2,0-1.7,0-2.1-0.3c-0.4-0.2-0.5-0.9-0.5-2.1v-3.4h2c1.6,0,1.7,0.1,1.9,1.8h0.6v-4.6h-0.6
			c-0.2,1.6-0.3,1.7-1.9,1.7h-2v-4.5c0-0.8,0-0.8,0.7-0.8h1.4c1.2,0,1.8,0.3,2.1,0.6c0.3,0.3,0.5,0.9,0.6,2l0.6-0.1
			c-0.1-1.5-0.2-2.9-0.2-3.5h-9.1v0.7c1.6,0.1,1.8,0.3,1.8,2.6V128.6L161.9,128.6z"/>
		<path fill="#FFFFFF" d="M171.5,127.6c0.2,1.4,0.5,3.2,0.6,3.6c0.4,0.3,1.7,1.1,3.3,1.1c2.5,0,4.4-1.8,4.4-4.4
			c0-2.6-1.9-3.7-3.6-4.4c-1.2-0.5-2.4-1.1-2.4-2.7c0-1.2,0.7-2.3,2-2.3c1.5,0,2.4,1.4,2.8,3.2l0.6-0.1c-0.2-1.5-0.3-2.6-0.5-3.5
			c-0.5-0.2-1.4-0.6-2.6-0.6c-2.5,0-4.2,1.7-4.2,4.2c0,2.5,2.1,3.4,3.4,4.1c1.2,0.6,2.5,1.3,2.5,3.1c0,1.5-0.9,2.5-2.3,2.5
			c-1.7,0-3.1-2.2-3.4-3.8L171.5,127.6L171.5,127.6z"/>
	</g>
</svg>
