<?xml version="1.0" encoding="utf-8"?>
<!-- Generator: Adobe Illustrator 19.2.1, SVG Export Plug-In . SVG Version: 6.00 Build 0)  -->
<svg version="1.1" id="Layer_1" xmlns="http://www.w3.org/2000/svg" xmlns:xlink="http://www.w3.org/1999/xlink" x="0px" y="0px"
	 viewBox="0 0 152.6 231" enable-background="new 0 0 152.6 231" xml:space="preserve">
<g>
	<path fill="#B3B5B5" d="M142.1,86.2H10.5c-5.1,0-9.4-4.3-9.4-9.4c0-2.5,1-4.8,2.8-6.6L69.7,4.5c1.8-1.8,4.1-2.8,6.6-2.8
		c2.5,0,4.8,1,6.6,2.8l65.8,65.8c1.8,1.8,2.8,4.1,2.8,6.6C151.5,82,147.2,86.2,142.1,86.2 M148.7,160.8l-65.8,65.8
		c-1.8,1.8-4.1,2.8-6.6,2.8c-2.5,0-4.8-1-6.6-2.8L3.9,160.8c-1.8-1.8-2.8-4.1-2.8-6.6c0-5.1,4.3-9.4,9.4-9.4h131.6
		c5.1,0,9.4,4.3,9.4,9.4C151.5,156.7,150.4,159,148.7,160.8"/>
</g>
</svg>
